<?xml version="1.0" standalone="no"?>
<!DOCTYPE svg PUBLIC "-//W3C//DTD SVG 20010904//EN"
 "http://www.w3.org/TR/2001/REC-SVG-20010904/DTD/svg10.dtd">
<svg version="1.0" xmlns="http://www.w3.org/2000/svg"
 width="1280.000000pt" height="1009.000000pt" viewBox="0 0 1280.000000 1009.000000"
 preserveAspectRatio="xMidYMid meet">
<g transform="translate(0.000000,1009.000000) scale(0.100000,-0.100000)"
fill="#000000" stroke="none">
<path d="M1035 10066 c-99 -28 -134 -43 -222 -95 -105 -64 -183 -129 -197
-164 -8 -18 -16 -94 -20 -169 l-6 -138 45 -50 c25 -28 45 -54 45 -58 0 -5 -11
-23 -25 -42 -31 -42 -32 -70 -2 -98 24 -23 71 -30 82 -12 23 38 75 -21 75 -85
0 -38 14 -52 55 -57 26 -3 30 -7 28 -32 -3 -43 12 -63 53 -69 19 -3 46 -17 58
-30 12 -13 29 -26 37 -29 12 -4 11 -11 -3 -42 -24 -50 -23 -54 17 -77 31 -19
35 -26 35 -63 0 -36 5 -47 35 -73 19 -17 35 -38 35 -45 0 -46 168 -144 229
-134 52 8 109 -13 120 -46 6 -16 23 -33 38 -40 15 -7 44 -26 63 -42 28 -24 36
-39 40 -75 4 -38 10 -48 33 -59 25 -12 32 -23 28 -46 -1 -5 3 -22 10 -38 11
-27 25 -34 79 -40 15 -2 33 -16 48 -38 24 -35 260 -281 300 -313 28 -21 26
-29 -35 -150 -40 -81 -48 -90 -90 -109 -48 -21 -138 -39 -288 -58 -49 -6 -126
-16 -170 -21 -52 -7 -94 -19 -121 -34 -23 -14 -63 -32 -89 -41 -34 -11 -67
-35 -113 -80 -35 -36 -83 -77 -106 -91 -22 -14 -74 -57 -114 -94 -50 -46 -90
-74 -127 -88 -30 -12 -83 -35 -118 -52 -125 -64 -253 -83 -372 -54 -133 32
-179 12 -173 -77 2 -38 -1 -53 -12 -58 -8 -4 -28 -14 -45 -22 -25 -13 -39 -14
-83 -5 -62 13 -88 3 -85 -34 1 -13 8 -69 15 -125 13 -94 16 -104 61 -167 55
-77 96 -111 167 -138 43 -16 77 -19 249 -19 220 0 302 13 557 86 172 49 338
64 715 64 l306 0 71 -50 c150 -105 250 -216 292 -325 13 -33 27 -65 32 -72 5
-6 16 -55 24 -109 8 -54 26 -129 40 -168 14 -39 37 -109 51 -156 14 -47 34
-110 45 -140 11 -30 36 -109 54 -175 19 -66 45 -156 59 -201 14 -44 25 -87 25
-95 0 -9 20 -56 43 -105 24 -49 52 -114 62 -144 38 -116 87 -191 275 -415 69
-82 145 -176 169 -207 45 -60 48 -88 11 -88 -38 0 -290 90 -388 138 -53 27
-180 74 -282 106 -102 32 -192 61 -200 65 -31 16 -121 149 -185 271 -36 69
-74 141 -85 160 -49 87 -129 269 -134 303 -2 21 -17 52 -31 70 -36 43 -105
150 -106 162 0 6 -22 42 -49 80 -27 39 -65 99 -85 135 -91 165 -191 306 -226
321 -15 6 -58 9 -95 8 -41 -1 -93 5 -129 14 -32 10 -75 17 -94 17 -60 0 -161
-22 -182 -39 -38 -30 -17 -52 108 -116 l118 -60 45 -91 c25 -50 60 -109 78
-131 35 -45 41 -73 15 -73 -19 0 -188 62 -232 85 -14 7 -51 30 -81 50 -49 33
-59 36 -100 31 -25 -3 -103 -10 -175 -14 -101 -7 -140 -14 -176 -31 -80 -38
-137 -109 -124 -151 7 -22 52 -30 163 -30 l84 0 49 -52 c27 -29 49 -59 49 -65
0 -7 -12 -15 -27 -18 -107 -22 -196 -69 -230 -122 -10 -15 -45 -39 -80 -55
-127 -57 -221 -184 -168 -228 18 -15 57 -10 157 20 83 26 82 26 158 -23 27
-17 50 -22 100 -22 58 0 78 6 185 57 159 74 203 88 284 88 73 0 161 -22 185
-46 9 -8 20 -32 26 -54 6 -21 28 -61 49 -88 22 -27 48 -67 60 -89 30 -60 76
-93 273 -194 111 -57 187 -102 203 -121 14 -17 49 -68 78 -115 95 -157 144
-197 259 -213 64 -9 109 -37 150 -91 63 -86 115 -121 378 -255 91 -47 204 -89
278 -103 35 -7 119 -32 188 -57 145 -51 287 -73 332 -52 24 11 30 26 51 111
20 83 26 97 44 97 11 0 63 -27 116 -59 53 -33 120 -69 149 -80 58 -23 292 -66
415 -77 92 -8 98 -15 72 -86 -14 -40 -17 -68 -12 -135 4 -61 3 -85 -6 -89 -12
-4 -153 20 -294 50 -39 9 -131 20 -205 26 -85 6 -155 17 -193 30 -33 11 -107
26 -165 34 -58 8 -136 26 -175 41 -92 35 -190 53 -360 65 -228 16 -301 -3
-399 -101 -34 -33 -90 -82 -125 -107 -35 -26 -78 -67 -95 -90 -26 -37 -31 -53
-31 -104 0 -92 11 -94 145 -25 60 31 117 57 125 57 8 0 31 -9 52 -20 44 -22
80 -24 253 -14 103 5 132 4 163 -9 20 -9 37 -22 37 -30 0 -21 -133 -95 -225
-124 -93 -30 -100 -34 -125 -82 -11 -20 -63 -81 -115 -136 -121 -126 -158
-196 -159 -299 -1 -62 1 -70 25 -88 37 -28 67 -12 156 82 103 109 124 123 184
121 27 -1 81 6 121 15 86 18 153 60 216 134 57 67 92 85 137 70 57 -19 60 -33
14 -69 -88 -71 -176 -258 -194 -414 -4 -32 -18 -84 -33 -115 -24 -51 -27 -69
-27 -173 0 -131 12 -159 66 -159 35 0 58 30 129 167 43 84 59 105 87 118 91
44 133 108 178 275 19 72 32 101 62 136 21 24 65 79 99 122 l61 77 104 0 c81
0 111 4 137 18 18 10 74 34 123 52 50 19 110 48 134 65 67 46 81 49 190 38 83
-8 114 -7 182 7 80 17 82 17 115 -3 45 -28 195 -186 358 -375 164 -192 210
-254 210 -282 0 -89 -248 -438 -431 -608 -82 -77 -121 -98 -144 -81 -123 90
-182 114 -278 114 -116 0 -234 -59 -310 -154 -72 -92 -94 -167 -61 -214 19
-28 55 -28 145 -1 83 25 198 24 225 -3 14 -14 14 -18 0 -47 -10 -19 -35 -40
-64 -55 -26 -13 -101 -63 -167 -110 -66 -48 -137 -99 -158 -113 -40 -27 -168
-63 -228 -63 -44 0 -84 -29 -103 -75 -12 -27 -24 -36 -68 -50 -73 -24 -145
-71 -182 -120 -17 -23 -51 -66 -75 -96 -68 -83 -94 -148 -89 -220 5 -69 29
-103 68 -96 14 2 97 25 184 51 131 38 174 46 240 46 95 0 220 22 326 57 338
111 518 150 609 130 88 -19 247 32 294 94 35 48 55 115 67 227 6 57 19 118 32
147 34 79 116 198 151 220 28 18 38 37 77 155 42 125 51 142 122 235 42 55
145 172 229 260 83 88 157 174 165 192 38 87 -1 338 -72 470 -44 81 -44 81
-44 185 0 90 -4 116 -34 208 -19 58 -42 130 -50 161 -9 31 -29 83 -46 114 -16
31 -30 59 -30 60 0 2 35 23 77 46 85 47 136 53 204 25 19 -8 75 -19 125 -25
50 -6 113 -18 140 -26 27 -8 81 -15 119 -15 39 0 101 -7 140 -15 89 -19 194
-19 265 0 77 20 86 10 71 -77 -17 -99 -14 -160 13 -234 17 -47 35 -75 60 -96
20 -16 55 -62 77 -101 23 -40 49 -80 57 -89 28 -33 166 -112 261 -150 113 -45
204 -52 268 -19 62 31 199 45 286 27 39 -8 110 -17 157 -21 94 -7 367 -75 401
-99 36 -25 78 -97 105 -180 29 -93 43 -221 44 -397 0 -165 0 -165 -120 -116
-76 31 -101 37 -165 37 -60 0 -85 -5 -123 -24 -64 -32 -127 -103 -165 -184
-26 -56 -31 -80 -31 -147 -1 -78 -1 -79 27 -89 25 -9 40 -5 117 37 48 26 99
48 112 49 38 3 81 -20 100 -52 9 -16 39 -45 66 -65 51 -36 88 -86 103 -138 17
-60 -31 -123 -129 -168 -77 -35 -137 -81 -158 -122 -9 -17 -35 -53 -57 -81
-80 -101 -114 -225 -85 -311 22 -67 71 -58 213 39 l60 40 145 8 c121 6 157 4
214 -10 64 -16 69 -19 80 -52 10 -33 13 -35 62 -38 46 -3 55 1 92 32 23 19 55
37 71 41 16 3 37 15 46 25 53 58 115 271 100 343 -4 18 -27 93 -52 167 -44
132 -45 139 -54 313 l-9 178 40 116 c33 94 40 129 40 190 0 89 -31 250 -65
336 -13 34 -33 104 -44 155 -20 93 -54 180 -136 347 -24 50 -54 126 -66 170
-26 97 -47 141 -88 179 -25 24 -41 30 -100 35 -39 4 -72 9 -73 11 -49 67 -98
125 -140 167 -59 58 -182 127 -273 153 l-60 17 3 59 c2 33 10 72 18 88 8 16
14 36 14 45 0 9 20 33 44 54 32 26 50 53 66 94 12 32 34 83 50 113 36 68 70
144 70 154 0 4 11 31 25 59 13 29 29 86 36 127 6 41 18 91 25 110 8 19 19 68
24 109 6 40 13 78 16 83 8 13 37 227 39 288 1 25 6 56 12 70 7 17 7 58 1 125
-24 267 -30 324 -41 368 -8 37 -8 61 2 105 26 112 25 181 -3 284 -30 111 -35
228 -11 284 8 20 19 63 25 97 6 36 18 69 30 82 11 12 32 60 46 106 15 46 36
104 49 129 13 25 30 68 38 95 23 78 54 151 81 192 28 42 52 139 71 284 6 52
19 106 28 120 8 13 54 137 101 274 47 138 108 295 135 350 27 55 53 111 57
125 12 41 79 170 128 245 76 114 327 376 431 449 136 96 218 143 276 160 29 9
67 29 84 44 40 38 120 86 170 102 22 7 65 25 95 41 30 15 75 33 100 39 61 16
270 100 348 139 34 17 110 43 168 57 58 13 119 31 134 39 74 38 580 47 631 11
17 -11 46 -16 102 -16 59 0 94 -6 140 -24 34 -13 78 -27 97 -31 19 -4 78 -25
130 -47 52 -22 123 -51 158 -64 34 -13 75 -33 90 -44 29 -21 126 -40 204 -40
51 0 72 18 98 80 11 27 10 36 -11 77 -53 102 -348 385 -469 449 -36 19 -80 44
-99 55 -47 28 -274 127 -344 150 -62 20 -277 51 -497 70 -109 10 -162 10 -275
-1 -77 -7 -230 -16 -340 -20 -180 -6 -212 -10 -316 -38 -64 -17 -127 -36 -140
-41 -36 -16 -243 -61 -278 -61 -16 0 -65 -11 -108 -24 -43 -14 -109 -32 -148
-40 -64 -13 -258 -93 -330 -136 -16 -10 -46 -23 -66 -29 -20 -6 -51 -23 -69
-36 -19 -14 -59 -34 -89 -46 -30 -11 -72 -35 -93 -54 -20 -19 -60 -46 -87 -60
-57 -28 -277 -229 -404 -367 -125 -137 -248 -290 -324 -403 -37 -55 -82 -119
-100 -143 -18 -24 -33 -49 -33 -56 0 -7 -11 -33 -23 -57 -13 -24 -29 -60 -35
-79 -7 -19 -29 -58 -50 -85 -89 -120 -145 -201 -156 -225 -23 -54 -273 -324
-422 -455 -37 -33 -100 -90 -138 -126 -39 -37 -86 -74 -103 -83 -18 -9 -39
-29 -47 -44 -20 -39 -95 -107 -134 -122 -23 -9 -35 -21 -38 -40 l-6 -27 -198
-17 c-110 -9 -223 -23 -252 -31 -29 -8 -89 -24 -133 -36 -44 -12 -105 -33
-135 -46 -30 -14 -100 -43 -155 -65 -167 -67 -386 -183 -449 -240 l-57 -50
-87 7 c-122 11 -539 8 -646 -5 -185 -22 -416 -98 -476 -155 -14 -13 -43 -31
-65 -40 -22 -9 -49 -25 -60 -35 -11 -9 -57 -36 -102 -60 l-82 -42 -73 29 c-54
22 -79 38 -96 64 -23 33 -23 35 -17 264 3 126 8 284 12 349 3 69 1 186 -7 277
-10 126 -10 164 0 195 21 61 19 408 -2 514 -9 47 -20 117 -23 155 -8 76 -71
266 -110 325 -12 20 -35 61 -50 90 -15 30 -42 72 -61 92 -33 37 -54 91 -54
139 0 35 -51 130 -150 279 -20 30 -51 81 -69 113 -18 32 -57 84 -86 115 -57
62 -137 107 -395 222 -140 62 -171 81 -283 179 -37 32 -98 75 -135 96 -37 20
-98 59 -137 85 -38 27 -113 68 -165 91 -121 53 -235 120 -460 269 -228 152
-358 225 -466 261 -101 34 -149 35 -259 5z"/>
</g>
</svg>
